<svg width="24" height="26" viewBox="0 0 24 26" fill="none" xmlns="http://www.w3.org/2000/svg">
<path fill-rule="evenodd" clip-rule="evenodd" d="M7 3H17V0.5H19.5V3H20.75C21.413 3 22.0489 3.26339 22.5178 3.73223C22.9866 4.20107 23.25 4.83696 23.25 5.5V23C23.25 23.663 22.9866 24.2989 22.5178 24.7678C22.0489 25.2366 21.413 25.5 20.75 25.5H3.25C2.58696 25.5 1.95107 25.2366 1.48223 24.7678C1.01339 24.2989 0.75 23.663 0.75 23V5.5C0.75 4.83696 1.01339 4.20107 1.48223 3.73223C1.95107 3.26339 2.58696 3 3.25 3H4.5V0.5H7V3ZM3.25 8V23H20.75V8H3.25ZM5.75 11.75H8.25V14.25H5.75V11.75ZM10.75 11.75H13.25V14.25H10.75V11.75ZM15.75 11.75H18.25V14.25H15.75V11.75ZM15.75 16.75H18.25V19.25H15.75V16.75ZM10.75 16.75H13.25V19.25H10.75V16.75ZM5.75 16.75H8.25V19.25H5.75V16.75Z" fill="#767620"/>
</svg>
