<svg width="30" height="28" viewBox="0 0 30 28" fill="none" xmlns="http://www.w3.org/2000/svg">
<path d="M28.578 13.7812L15.7061 0.918676C15.6134 0.825813 15.5033 0.75214 15.3822 0.701873C15.261 0.651606 15.1311 0.625732 14.9999 0.625732C14.8687 0.625732 14.7387 0.651606 14.6176 0.701873C14.4964 0.75214 14.3863 0.825813 14.2936 0.918676L1.42173 13.7812C1.04673 14.1562 0.834229 14.6656 0.834229 15.1968C0.834229 16.2999 1.7311 17.1968 2.83423 17.1968H4.19048V26.3749C4.19048 26.9281 4.63735 27.3749 5.19048 27.3749H12.9999V20.3749H16.4999V27.3749H24.8092C25.3624 27.3749 25.8092 26.9281 25.8092 26.3749V17.1968H27.1655C27.6967 17.1968 28.2061 16.9874 28.5811 16.6093C29.3592 15.8281 29.3592 14.5624 28.578 13.7812V13.7812Z" fill="#767620"/>
</svg>
