<svg width="63" height="64" viewBox="0 0 63 64" fill="none" xmlns="http://www.w3.org/2000/svg">
<path d="M61.8657 1.74194H1.31641V62.348H61.8657V1.74194Z" fill="#D3D360"/>
<path d="M15.6951 45.0335L15.0291 41.067L15.3621 37.2681L16.8051 34.0279L18.8586 29.2234L20.4127 25.8156L21.6337 23.0782L22.6882 19.5027L24.0202 13.972L26.4068 11.067L29.0153 9.8938H31.9014L35.4534 11.2346L37.396 13.9161L38.95 18.1061L39.949 22.1284L42.1691 27.4916L44.1116 31.6815L46.2206 37.2122V41.905L45.2771 45.8156L43.0571 49.6703L39.7825 51.8491L36.397 52.6871L31.2354 52.1284L26.6843 49.4469L24.4642 47.5474L22.1332 47.6592L17.8041 46.6536L15.9171 45.7597L15.6951 45.0335Z" fill="#8F8F2D"/>
<path d="M24.4643 47.5477L22.6882 42.9108V38.8326L23.9648 35.2013L25.4633 32.1845L27.6833 30.1175L30.6249 29.2236L33.6774 29.7264L36.286 31.6259L38.1175 34.3633L38.95 37.9387V40.1734L37.285 43.7488L35.4535 45.8158L32.5674 47.5477L28.1828 48.1622H24.9083L24.4643 47.5477Z" fill="#D8B79F"/>
<path d="M62.9266 0.731934H0.376953V63.637H62.8711V0.731934H62.9266ZM61.7056 62.4638H1.59797V38.5532C5.92706 41.3465 10.3671 44.1956 15.1957 46.1509C16.6388 50.3967 20.1908 54.028 24.9639 56.2068C27.961 57.5476 31.2355 58.218 34.3991 58.218C37.3407 58.218 40.2822 57.6034 42.8908 56.4303C49.9949 53.19 56.3775 45.4247 61.4836 39.1677C61.5946 39.056 61.7056 38.9442 61.7611 38.7766V62.4638H61.7056ZM33.0671 47.8269C35.8976 46.9331 38.0067 44.9219 38.9502 42.1286C40.0602 38.8325 39.3942 34.9777 37.2852 31.961C35.7866 29.8939 33.6776 28.609 31.402 28.5532C29.182 28.4973 27.073 29.5029 25.4634 31.4582C22.2444 35.3688 20.9123 42.6314 23.6319 47.2124C21.1898 46.933 18.7478 46.2627 16.1393 45.2571C15.6952 43.7487 15.5287 42.1844 15.6397 40.5643C15.9172 36.7096 17.5823 33.2459 19.3583 29.5587C20.6348 26.8772 22.0224 24.1398 22.7439 21.1789C22.8549 20.6202 23.0214 20.1174 23.1324 19.5587C23.7984 16.7096 24.4644 13.6928 26.6289 11.8493C28.849 9.89394 32.7896 9.89394 35.0096 11.8493C36.9521 13.5252 37.7847 16.9889 38.4507 19.7822C38.5617 20.3409 38.7282 20.8437 38.8392 21.2906C39.5607 23.9722 40.7817 26.4303 42.0027 28.7766C43.7233 32.1286 45.3328 35.2571 45.5548 38.9442C45.8323 43.6928 43.9453 49.3911 38.9502 51.2906C36.7301 52.1286 34.0661 52.1844 31.4575 51.4582C29.515 50.8995 28.0165 49.8939 26.4624 48.5532C28.7935 48.5532 30.958 48.4414 33.0671 47.8269ZM25.1859 47.38C22.1334 43.3576 23.2989 35.9275 26.4069 32.1844C27.739 30.5643 29.515 29.6705 31.3465 29.7263C33.2336 29.7822 35.0651 30.8437 36.2861 32.6314C38.1732 35.3129 38.7837 38.7766 37.7847 41.6817C36.9521 44.0839 35.1761 45.8716 32.6786 46.5979C30.3475 47.38 27.739 47.38 25.1859 47.38ZM61.7056 36.9889C61.3171 37.4917 60.9286 37.9386 60.4846 38.4973C55.4895 44.6425 49.2179 52.2962 42.3358 55.4247C37.2297 57.7152 30.9025 57.6593 25.4079 55.1453C21.3009 53.3018 18.1373 50.285 16.6388 46.7655C19.4693 47.771 22.1334 48.3856 24.7974 48.5532C26.7955 50.5085 28.6825 51.9051 31.291 52.6872C34.1216 53.5252 37.0076 53.4694 39.5052 52.5196C45.0553 50.3967 47.1643 44.1956 46.8868 39.0001C46.6648 35.0895 44.8888 31.6817 43.1683 28.3856C41.9472 26.0392 40.7262 23.6928 40.0602 21.123C39.9492 20.6761 39.8382 20.1174 39.6717 19.6146C38.9502 16.6537 38.0622 12.9666 35.8421 11.0113C33.1226 8.66489 28.5715 8.66489 25.9074 11.0113C23.4099 13.1342 22.6884 16.3185 22.0224 19.3912C21.9114 19.9498 21.8004 20.4526 21.6339 21.0113C20.9123 23.8046 19.6358 26.542 18.3593 29.1118C16.5833 32.7431 14.8072 36.4861 14.5297 40.5643C14.4187 42.0168 14.5297 43.4135 14.8072 44.8101C10.2006 42.799 5.81606 40.0057 1.65348 37.2682V2.07272H61.7611V36.9889H61.7056Z" fill="#161616"/>
</svg>
