<svg width="116" height="100" viewBox="0 0 116 100" fill="none" xmlns="http://www.w3.org/2000/svg">
<path d="M87.7963 1.01001H27.2471V61.6161H87.7963V1.01001Z" fill="#D3D360"/>
<path d="M41.6257 44.3015L40.9597 40.335L41.2927 36.5362L42.7357 33.2959L44.7893 28.4915L46.3433 25.0837L47.5643 22.3462L48.6189 18.7708L49.9509 13.2401L52.3374 10.335L54.946 9.16187H57.832L61.3841 10.5026L63.3266 13.1842L64.8807 17.3742L65.8797 21.3965L68.0997 26.7596L70.0423 30.9496L72.1513 36.4803V41.173L71.2078 45.0837L68.9877 48.9384L65.7132 51.1172L62.3276 51.9552L57.166 51.3965L52.6149 48.7149L50.3949 46.8155L48.0638 46.9272L43.7348 45.9216L41.8477 45.0278L41.6257 44.3015Z" fill="#8F8F2D"/>
<path d="M50.3949 46.8157L48.6189 42.1789V38.1006L49.8954 34.4694L51.3939 31.4526L53.614 29.3856L56.5555 28.4917L59.6081 28.9945L62.2167 30.8939L64.0482 33.6314L64.8807 37.2068V39.4414L63.2157 43.0168L61.3841 45.0839L58.4981 46.8157L54.1135 47.4303H50.8389L50.3949 46.8157Z" fill="#D8B79F"/>
<path d="M13.5978 87.2624C11.9882 85.4747 10.1012 84.5808 7.88115 84.5808C5.66111 84.5808 3.77407 85.3629 2.27554 86.8713C0.777015 88.3797 0 90.1674 0 92.2344C0 94.3015 0.777015 96.1451 2.27554 97.6534C3.77407 99.2177 5.60561 99.9998 7.65915 99.9998H7.93665C10.1012 99.9998 11.9882 99.1618 13.5423 97.43L13.5978 97.3741V95.0836L13.2648 95.5864C12.6542 96.5361 11.8217 97.3182 10.8227 97.8769C9.87919 98.4356 8.71367 98.7149 7.49264 98.7149C6.32712 98.7149 5.1061 98.2121 3.82957 97.2065L13.7643 87.3741L13.5978 87.2624ZM2.88605 96.3127C1.88704 95.0836 1.38753 93.687 1.38753 92.1227C1.38753 90.5026 1.99804 88.9942 3.27456 87.7652C4.55109 86.4803 5.99411 85.8657 7.60364 85.8657C9.15767 85.8657 10.6007 86.3685 11.8217 87.43L2.88605 96.3127Z" fill="#161616"/>
<path d="M29.5265 87.8772C28.9715 86.9834 28.139 86.2013 27.14 85.5867C25.919 84.8605 24.587 84.5253 23.2549 84.5253C21.1459 84.5253 19.3144 85.3074 17.8158 86.8158C16.3173 88.3242 15.5403 90.1677 15.5403 92.2348C15.5403 94.3577 16.3173 96.1454 17.8158 97.6538C19.3144 99.1622 21.1459 99.9443 23.2549 99.9443C24.5315 99.9443 25.808 99.6091 27.029 98.8828C28.0835 98.2683 28.916 97.542 29.5265 96.5923V99.6091H30.9141V75.3633H29.5265V87.8772ZM27.695 96.8158C26.4185 98.1007 24.92 98.7152 23.1994 98.7152C21.4789 98.7152 19.9804 98.1007 18.7593 96.8158C17.5383 95.5309 16.9278 94.0225 16.9278 92.2906C16.9278 90.5588 17.5383 89.0504 18.8148 87.7655C20.0359 86.4806 21.5344 85.8661 23.2549 85.8661C24.9755 85.8661 26.474 86.5365 27.7505 87.8214C29.027 89.1063 29.6376 90.6147 29.6376 92.3465C29.5821 94.0225 28.916 95.5309 27.695 96.8158Z" fill="#161616"/>
<path d="M45.7883 93.4076C45.7883 94.8043 45.2333 96.0333 44.1787 97.0948C43.1242 98.1562 41.8477 98.659 40.4602 98.659C39.0727 98.659 37.8516 98.1562 36.8526 97.0948C35.8536 96.0333 35.3541 94.8043 35.3541 93.4076V84.916H33.9666V93.4635C33.9666 95.2512 34.5771 96.8155 35.7981 98.1004C37.0191 99.3853 38.5731 99.9998 40.4047 99.9998C42.7912 99.9998 44.6228 99.0501 45.7328 97.2624V99.6646H47.1758V84.916H45.7883V93.4076Z" fill="#161616"/>
<path d="M57.3327 84.637C55.1127 84.637 53.2812 85.4191 51.7826 86.9275C50.2841 88.4358 49.5071 90.2236 49.5071 92.2906C49.5071 94.3576 50.2841 96.2012 51.7271 97.7096C53.2257 99.2738 55.0017 100 57.0552 100H57.3327C59.5528 100 61.4398 99.1621 62.9383 97.4861L62.9938 97.4303V95.0839L62.6608 95.5867C62.0503 96.5364 61.2178 97.3185 60.2188 97.8772C59.2198 98.4358 58.2207 98.7152 57.1662 98.7152C55.4457 98.7152 53.9472 98.1006 52.7261 96.8157C51.4496 95.5308 50.8391 94.0224 50.8391 92.2906C50.8391 90.5587 51.4496 88.9945 52.7261 87.7655C54.0027 86.4805 55.5012 85.866 57.1662 85.866C58.2207 85.866 59.2753 86.1453 60.2188 86.704C61.2178 87.2627 61.9948 88.0448 62.6608 88.9945L62.9938 89.4973V87.1509L62.9383 87.0951C61.4398 85.4749 59.5528 84.637 57.3327 84.637Z" fill="#161616"/>
<path d="M78.5894 87.9328C78.0899 87.0389 77.3128 86.2568 76.2583 85.6981C74.9818 84.9719 73.6498 84.5808 72.2623 84.5808C70.1532 84.5808 68.3217 85.3629 66.8232 86.8713C65.3246 88.3797 64.5476 90.2233 64.5476 92.2903C64.5476 94.4132 65.3246 96.2009 66.8232 97.7093C68.3217 99.2177 70.1532 99.9998 72.2623 99.9998C73.6498 99.9998 74.9263 99.6646 76.1473 98.9384C77.1463 98.3238 77.9234 97.5417 78.5339 96.592V99.6646H79.9214V84.916H78.5339V87.9328H78.5894ZM76.8133 96.8155C75.5923 98.1004 74.0938 98.7149 72.3733 98.7149C70.6527 98.7149 69.1542 98.1004 67.8777 96.8155C66.6011 95.5305 65.9906 94.0222 65.9906 92.2903C65.9906 90.5585 66.6011 89.0501 67.8777 87.7652C69.1542 86.4803 70.6527 85.8099 72.3733 85.8099C74.0938 85.8099 75.5923 86.4803 76.8133 87.7093C78.0344 88.9942 78.7004 90.5026 78.7004 92.2344C78.6449 94.0222 78.0344 95.5305 76.8133 96.8155Z" fill="#161616"/>
<path d="M96.572 87.8772C96.0169 86.9834 95.1844 86.2013 94.1854 85.5867C92.9644 84.8605 91.6324 84.5253 90.3003 84.5253C88.1913 84.5253 86.3598 85.3074 84.8612 86.8158C83.3627 88.3242 82.5857 90.1677 82.5857 92.2348C82.5857 94.3577 83.3627 96.1454 84.8612 97.6538C86.3598 99.1622 88.1913 99.9443 90.3003 99.9443C91.5769 99.9443 92.8534 99.6091 94.0744 98.8828C95.1289 98.2683 95.9614 97.542 96.572 96.5923V99.6091H97.9595V75.3633H96.572V87.8772ZM94.7404 96.8158C93.4639 98.1007 91.9654 98.7152 90.2448 98.7152C88.5243 98.7152 87.0258 98.1007 85.8048 96.8158C84.5837 95.5309 83.9732 94.0225 83.9732 92.2906C83.9732 90.5588 84.5837 89.0504 85.8603 87.7655C87.0813 86.4806 88.5798 85.8661 90.3003 85.8661C92.0209 85.8661 93.5194 86.5365 94.7959 87.8214C96.0725 89.1063 96.683 90.6147 96.683 92.3465C96.683 94.0225 96.0169 95.5309 94.7404 96.8158Z" fill="#161616"/>
<path d="M113.777 86.8156C112.279 85.3073 110.447 84.5251 108.338 84.5251C106.229 84.5251 104.397 85.3073 102.899 86.8156C101.4 88.324 100.623 90.1117 100.623 92.1788C100.623 94.2458 101.4 96.0894 102.843 97.5978C104.342 99.162 106.118 99.9441 108.171 99.9441H108.449C110.558 99.9441 112.334 99.162 113.777 97.5978C115.22 96.0335 115.997 94.2458 115.997 92.1788C116.053 90.1117 115.276 88.324 113.777 86.8156ZM112.834 96.8156C111.613 98.1006 110.114 98.7151 108.393 98.7151C106.673 98.7151 105.174 98.1006 103.898 96.8156C102.621 95.5307 102.011 94.0223 102.011 92.2905C102.011 90.5587 102.621 89.0503 103.898 87.7654C105.174 86.4805 106.673 85.8101 108.393 85.8101C110.114 85.8101 111.613 86.4805 112.834 87.7095C114.055 88.9944 114.721 90.5028 114.721 92.2346C114.665 94.0224 114.055 95.5307 112.834 96.8156Z" fill="#161616"/>
<path d="M88.8573 0H26.3076V62.905H88.8018V0H88.8573ZM87.6363 61.7318H27.5286V37.8212C31.8577 40.6145 36.2978 43.4637 41.1264 45.419C42.5694 49.6648 46.1215 53.2961 50.8946 55.4749C53.8916 56.8156 57.1662 57.486 60.3298 57.486C63.2713 57.486 66.2129 56.8715 68.8214 55.6983C75.9256 52.4581 82.3082 44.6927 87.4143 38.4358C87.5253 38.324 87.6363 38.2123 87.6918 38.0447V61.7318H87.6363ZM58.9977 47.095C61.8283 46.2011 63.9373 44.1899 64.8809 41.3966C65.9909 38.1006 65.3249 34.2458 63.2158 31.229C61.7173 29.162 59.6082 27.8771 57.3327 27.8212C55.1127 27.7654 53.0036 28.7709 51.3941 30.7263C48.175 34.6369 46.843 41.8994 49.5626 46.4804C47.1205 46.2011 44.6785 45.5307 42.0699 44.5251C41.6259 43.0168 41.4594 41.4525 41.5704 39.8324C41.8479 35.9777 43.5129 32.514 45.289 28.8268C46.5655 26.1453 47.953 23.4078 48.6745 20.4469C48.7855 19.8883 48.952 19.3855 49.063 18.8268C49.7291 15.9777 50.3951 12.9609 52.5596 11.1173C54.7797 9.16201 58.7202 9.16201 60.9403 11.1173C62.8828 12.7933 63.7153 16.257 64.3813 19.0503C64.4923 19.6089 64.6588 20.1117 64.7698 20.5587C65.4914 23.2402 66.7124 25.6983 67.9334 28.0447C69.6539 31.3966 71.2635 34.5251 71.4855 38.2123C71.763 42.9609 69.8759 48.6592 64.8809 50.5587C62.6608 51.3966 59.9968 51.4525 57.3882 50.7263C55.4457 50.1676 53.9471 49.162 52.3931 47.8212C54.7242 47.8212 56.8887 47.7095 58.9977 47.095ZM51.1166 46.648C48.064 42.6257 49.2296 35.1955 52.3376 31.4525C53.6696 29.8324 55.4457 28.9385 57.2772 28.9944C59.1642 29.0503 60.9958 30.1117 62.2168 31.8994C64.1038 34.581 64.7143 38.0447 63.7153 40.9497C62.8828 43.352 61.1068 45.1397 58.6092 45.8659C56.2782 46.648 53.6696 46.648 51.1166 46.648ZM87.6363 36.257C87.2478 36.7598 86.8593 37.2067 86.4153 37.7654C81.4202 43.9106 75.1485 51.5642 68.2664 54.6927C63.1603 56.9832 56.8332 56.9274 51.3386 54.4134C47.2315 52.5698 44.068 49.5531 42.5694 46.0335C45.4 47.0391 48.064 47.6536 50.7281 47.8212C52.7261 49.7765 54.6132 51.1732 57.2217 51.9553C60.0523 52.7933 62.9383 52.7374 65.4359 51.7877C70.986 49.6648 73.095 43.4637 72.8175 38.2682C72.5955 34.3575 70.8195 30.9497 69.0989 27.6536C67.8779 25.3073 66.6569 22.9609 65.9909 20.3911C65.8799 19.9441 65.7689 19.3855 65.6024 18.8827C64.8808 15.9218 63.9928 12.2346 61.7728 10.2793C59.0532 7.93296 54.5022 7.93296 51.8381 10.2793C49.3406 12.4022 48.619 15.5866 47.953 18.6592C47.842 19.2179 47.731 19.7207 47.5645 20.2793C46.843 23.0726 45.5665 25.8101 44.29 28.3799C42.5139 32.0112 40.7379 35.7542 40.4604 39.8324C40.3494 41.2849 40.4604 42.6816 40.7379 44.0782C36.1313 42.067 31.7467 39.2737 27.5841 36.5363V1.34078H87.6918V36.257H87.6363Z" fill="#161616"/>
</svg>
