<svg width="26" height="26" viewBox="0 0 26 26" fill="none" xmlns="http://www.w3.org/2000/svg">
<path d="M25.2383 0H0.761719C0.340234 0 0 0.359398 0 0.804621V16.0763H26V0.804621C26 0.359398 25.6598 0 25.2383 0Z" fill="#767620"/>
<path d="M16.1841 24.3908H15.9658V22.98H10.0345V24.3908H9.81616C9.39468 24.3908 9.05444 24.7501 9.05444 25.1954C9.05444 25.6406 9.39468 26 9.81616 26H16.1841C16.6056 26 16.9458 25.6406 16.9458 25.1954C16.9458 24.7501 16.6056 24.3908 16.1841 24.3908Z" fill="#767620"/>
<path d="M0 20.5339C0 20.9791 0.340234 21.3385 0.761719 21.3385H25.2383C25.6598 21.3385 26 20.9791 26 20.5339V17.6855H0V20.5339Z" fill="#767620"/>
</svg>
