<svg width="28" height="26" viewBox="0 0 28 26" fill="none" xmlns="http://www.w3.org/2000/svg">
<path d="M6.80964 11.9539H0.913056C0.408786 11.9539 0 12.3627 0 12.8669V24.66C0 25.1642 0.408786 25.5731 0.913056 25.5731H6.80964C7.31386 25.5731 7.7227 25.1643 7.7227 24.66V12.8669C7.72264 12.3627 7.31386 11.9539 6.80964 11.9539Z" fill="#767620"/>
<path d="M16.9481 0.160889H11.0515C10.5473 0.160889 10.1385 0.569675 10.1385 1.07395V24.6601C10.1385 25.1643 10.5473 25.5732 11.0515 25.5732H16.9481C17.4523 25.5732 17.8612 25.1645 17.8612 24.6602V1.07389C17.8611 0.569675 17.4523 0.160889 16.9481 0.160889Z" fill="#767620"/>
<path d="M27.0868 6.05727H21.1902C20.686 6.05727 20.2772 6.46606 20.2772 6.97033V24.66C20.2772 25.1642 20.686 25.573 21.1902 25.573H27.0868C27.5911 25.573 27.9999 25.1642 27.9999 24.66V6.97033C27.9998 6.46611 27.5911 6.05727 27.0868 6.05727Z" fill="#767620"/>
</svg>
