<svg width="32" height="24" viewBox="0 0 32 24" fill="none" xmlns="http://www.w3.org/2000/svg">
<path d="M32 23C32 23.2708 31.901 23.5052 31.7031 23.7031C31.5052 23.901 31.2708 24 31 24C30.7292 24 30.4948 23.901 30.2969 23.7031C30.099 23.5052 30 23.2708 30 23V9.84375L18.9688 15.375C18.1354 15.7917 17.1458 16 16 16C14.8542 16 13.8646 15.7917 13.0312 15.375L1.21875 9.46875C0.40625 9.05208 0 8.55729 0 7.98438C0 7.41146 0.40625 6.92708 1.21875 6.53125L13.0312 0.625C13.8646 0.208333 14.8542 0 16 0C17.1458 0 18.1354 0.208333 18.9688 0.625L30.7812 6.53125C31.4896 6.88542 31.8854 7.32292 31.9688 7.84375C31.9896 7.86458 32 7.90625 32 7.96875V23ZM19.9688 17.375L26 14.3438V18.75C26 19.6458 25.026 20.4115 23.0781 21.0469C21.1302 21.6823 18.7708 22 16 22C13.2292 22 10.8698 21.6823 8.92188 21.0469C6.97396 20.4115 6 19.6458 6 18.75V14.3438L12.0312 17.375C12.8646 17.7917 14.1875 18 16 18C17.8125 18 19.1354 17.7917 19.9688 17.375Z" fill="#767620"/>
</svg>
