<svg width="26" height="32" viewBox="0 0 26 32" fill="none" xmlns="http://www.w3.org/2000/svg">
<path d="M12.9989 12.6293C9.51692 12.6293 6.68422 9.79663 6.68422 6.31467C6.68422 2.8327 9.51692 0 12.9989 0C16.4809 0 19.3136 2.8327 19.3136 6.31467C19.3136 9.79663 16.4809 12.6293 12.9989 12.6293Z" fill="#767620"/>
<path d="M4.52544 15.6895C4.52813 15.6887 4.53331 15.6867 4.536 15.6861C5.3582 15.4852 7.87596 15.133 7.87596 15.133C8.16019 15.0455 8.46392 15.1961 8.56617 15.4765L12.356 25.8748C12.5746 26.4746 13.4229 26.4746 13.6416 25.8748L17.4314 15.4765C17.5139 15.25 17.7276 15.108 17.9567 15.108C18.011 15.108 20.5998 15.471 21.4616 15.6853C23.8167 16.2709 25.3022 18.5868 25.3022 21.0002V29.6523C25.3022 30.9489 24.251 32.0001 22.9544 32.0001H3.04525C1.74866 32.0001 0.69751 30.9489 0.69751 29.6523V20.9715C0.697618 18.5684 2.24127 16.4359 4.52544 15.6895Z" fill="#767620"/>
<path d="M11.5696 14.9348C11.7209 14.7699 11.942 14.6871 12.1656 14.6871H13.8341C14.0577 14.6871 14.2789 14.77 14.4301 14.9348C14.6642 15.1899 14.6983 15.5585 14.532 15.8465L13.6401 17.191L14.0576 20.7132L13.2354 22.9004C13.1553 23.1204 12.8442 23.1204 12.764 22.9004L11.9418 20.7132L12.3594 17.191L11.4675 15.8465C11.3014 15.5585 11.3355 15.1899 11.5696 14.9348Z" fill="#767620"/>
</svg>
