<svg width="30" height="23" viewBox="0 0 30 23" fill="none" xmlns="http://www.w3.org/2000/svg">
<path d="M13.2282 5.0002C13.2282 6.27323 12.7225 7.49413 11.8223 8.39431C10.9222 9.29448 9.70126 9.80019 8.42822 9.80019C7.15518 9.80019 5.93429 9.29448 5.03411 8.39431C4.13394 7.49413 3.62822 6.27323 3.62822 5.0002C3.62822 3.72716 4.13394 2.50626 5.03411 1.60608C5.93429 0.705908 7.15518 0.200195 8.42822 0.200195C9.70126 0.200195 10.9222 0.705908 11.8223 1.60608C12.7225 2.50626 13.2282 3.72716 13.2282 5.0002Z" fill="#767620"/>
<path d="M26.0282 5.0002C26.0282 5.63054 25.9041 6.25471 25.6628 6.83708C25.4216 7.41944 25.0681 7.94859 24.6223 8.39431C24.1766 8.84003 23.6475 9.19359 23.0651 9.43482C22.4827 9.67604 21.8586 9.80019 21.2282 9.80019C20.5979 9.80019 19.9737 9.67604 19.3913 9.43482C18.809 9.19359 18.2798 8.84003 17.8341 8.39431C17.3884 7.94859 17.0348 7.41944 16.7936 6.83708C16.5524 6.25471 16.4282 5.63054 16.4282 5.0002C16.4282 3.72716 16.9339 2.50626 17.8341 1.60608C18.7343 0.705908 19.9552 0.200195 21.2282 0.200195C22.5013 0.200195 23.7222 0.705908 24.6223 1.60608C25.5225 2.50626 26.0282 3.72716 26.0282 5.0002Z" fill="#767620"/>
<path d="M19.5162 22.6003C19.5898 22.0771 19.6282 21.5443 19.6282 21.0003C19.6319 18.4864 18.7862 16.0451 17.2282 14.0723C18.4444 13.3701 19.8239 13.0005 21.2282 13.0005C22.6324 13.0005 24.012 13.3701 25.2281 14.0722C26.4443 14.7743 27.4542 15.7842 28.1563 17.0003C28.8585 18.2165 29.2282 19.596 29.2282 21.0003V22.6003H19.5162Z" fill="#767620"/>
<path d="M8.42822 13.0002C10.55 13.0002 12.5848 13.843 14.0851 15.3433C15.5854 16.8436 16.4282 18.8785 16.4282 21.0002V22.6002H0.428223V21.0002C0.428223 18.8785 1.27108 16.8436 2.77137 15.3433C4.27166 13.843 6.30649 13.0002 8.42822 13.0002Z" fill="#767620"/>
</svg>
