<svg width="28" height="25" viewBox="0 0 28 25" fill="none" xmlns="http://www.w3.org/2000/svg">
<path d="M25.2071 4.95H19.1766V2.50844C19.1766 1.34589 18.2353 0.400146 17.0783 0.400146H10.9213C9.76428 0.400146 8.82297 1.34589 8.82297 2.50844V4.95H2.79253C1.25631 4.95 0.00646996 6.2058 0.00646996 7.74934C0.00646996 9.15141 -0.136437 10.4106 0.921011 11.8266C1.5193 12.6277 2.34148 13.1992 3.29862 13.4792L12.5931 16.1982C13.5133 16.4674 14.4861 16.4675 15.4064 16.1982L24.7009 13.4792C25.658 13.1992 26.4802 12.6277 27.0785 11.8266C28.1407 10.4042 27.993 9.1321 27.993 7.74934C27.9931 6.2058 26.7433 4.95 25.2071 4.95ZM10.6003 2.50844C10.6003 2.33058 10.7443 2.18594 10.9213 2.18594H17.0783C17.2553 2.18594 17.3993 2.33064 17.3993 2.50844V4.95H10.6003V2.50844Z" fill="#767620"/>
<path d="M25.2033 15.0412C15.1733 17.8789 15.3031 17.9363 14 17.9363C12.7061 17.9363 13.0131 17.9316 2.79667 15.0412C1.71949 14.7364 0.765502 14.1746 0 13.4001V21.6916C0 23.1851 1.25039 24.4001 2.78739 24.4001H25.2126C26.7496 24.4001 28 23.1851 28 21.6916V13.4001C27.2344 14.1746 26.2805 14.7364 25.2033 15.0412Z" fill="#767620"/>
</svg>
