<svg width="24" height="22" viewBox="0 0 24 22" fill="none" xmlns="http://www.w3.org/2000/svg">
<path d="M21.6188 5.17993H3.75C3.33562 5.17993 3 4.84431 3 4.42993C3 4.01556 3.33562 3.67993 3.75 3.67993H21.75C22.1644 3.67993 22.5 3.34431 22.5 2.92993C22.5 1.68728 21.4927 0.679932 20.25 0.679932H3C1.34297 0.679932 0 2.0229 0 3.67993V18.6799C0 20.337 1.34297 21.6799 3 21.6799H21.6188C22.9322 21.6799 24 20.6707 24 19.4299V7.42993C24 6.18915 22.9322 5.17993 21.6188 5.17993ZM19.5 14.9299C18.6717 14.9299 18 14.2582 18 13.4299C18 12.6017 18.6717 11.9299 19.5 11.9299C20.3283 11.9299 21 12.6017 21 13.4299C21 14.2582 20.3283 14.9299 19.5 14.9299Z" fill="#8F8F2D"/>
</svg>
